<svg xmlns="http://www.w3.org/2000/svg" width="495" height="516.201" viewBox="0 0 495 516.201">
  <g id="Gruppe_502" data-name="Gruppe 502" transform="translate(-648 -4134.799)">
    <g id="Gruppe_498" data-name="Gruppe 498" transform="translate(-63)" opacity="0.5">
      <rect id="Rechteck_273" data-name="Rechteck 273" width="430.866" height="195.591" rx="17.008" transform="translate(1054.293 4135.299) rotate(90)" fill="none" stroke="#fff" stroke-miterlimit="10" stroke-width="1"/>
      <path id="Pfad_221" data-name="Pfad 221" d="M230.107,49.372h0a5.8,5.8,0,0,1-3.311,5.29,11.324,11.324,0,0,0-6.61,10.3v99.213a11.338,11.338,0,0,0,11.338,11.338H308.06A11.338,11.338,0,0,0,319.4,164.173V64.96a11.324,11.324,0,0,0-6.61-10.3,5.8,5.8,0,0,1-3.311-5.29Z" transform="translate(1103.664 4134.799) rotate(90)" fill="none" stroke="#fff" stroke-miterlimit="10" stroke-width="1"/>
      <path id="Pfad_222" data-name="Pfad 222" d="M122.39,49.37h0a5.8,5.8,0,0,1-3.315,5.3,11.325,11.325,0,0,0-6.606,10.3V98.978a11.339,11.339,0,0,0,11.338,11.339h76.536a11.339,11.339,0,0,0,11.338-11.339V64.963a11.326,11.326,0,0,0-6.606-10.3,5.8,5.8,0,0,1-3.315-5.3Z" transform="translate(1103.664 4134.799) rotate(90)" fill="none" stroke="#fff" stroke-miterlimit="10" stroke-width="1"/>
      <path id="Pfad_223" data-name="Pfad 223" d="M220.185,195.354V229.37a11.327,11.327,0,0,0,6.607,10.3,5.8,5.8,0,0,1,3.314,5.295h79.37a5.8,5.8,0,0,1,3.315-5.295,11.327,11.327,0,0,0,6.607-10.3V195.354a11.339,11.339,0,0,0-11.339-11.339H231.524A11.339,11.339,0,0,0,220.185,195.354Z" transform="translate(1103.664 4134.799) rotate(90)" fill="none" stroke="#fff" stroke-miterlimit="10" stroke-width="1"/>
      <path id="Pfad_224" data-name="Pfad 224" d="M112.469,130.16v99.213a11.326,11.326,0,0,0,6.609,10.3,5.8,5.8,0,0,1,3.312,5.291h79.37a5.8,5.8,0,0,1,3.313-5.291,11.326,11.326,0,0,0,6.609-10.3V130.16a11.339,11.339,0,0,0-11.339-11.339H123.808A11.339,11.339,0,0,0,112.469,130.16Z" transform="translate(1103.664 4134.799) rotate(90)" fill="none" stroke="#fff" stroke-miterlimit="10" stroke-width="1"/>
      <path id="Pfad_225" data-name="Pfad 225" d="M.5,66.379V165.6H.51A5.794,5.794,0,0,1,5.8,168.911a11.327,11.327,0,0,0,10.294,6.6H92.626a11.339,11.339,0,0,0,11.339-11.339V64.96a11.327,11.327,0,0,0-6.61-10.3,5.8,5.8,0,0,1-3.311-5.29H17.508A17.008,17.008,0,0,0,.5,66.379Z" transform="translate(1103.664 4134.799) rotate(90)" fill="none" stroke="#fff" stroke-miterlimit="10" stroke-width="1"/>
      <path id="Pfad_226" data-name="Pfad 226" d="M.5,193.938h0v34.016a17.008,17.008,0,0,0,17.008,17.008H94.043v0a5.8,5.8,0,0,1,3.313-5.292,11.326,11.326,0,0,0,6.609-10.3V195.354a11.339,11.339,0,0,0-11.339-11.338H16.091a11.326,11.326,0,0,0-10.3,6.609A5.8,5.8,0,0,1,.5,193.938Z" transform="translate(1103.664 4134.799) rotate(90)" fill="none" stroke="#fff" stroke-miterlimit="10" stroke-width="1"/>
      <path id="Pfad_227" data-name="Pfad 227" d="M327.9,130.16v99.213a11.326,11.326,0,0,0,6.609,10.3,5.8,5.8,0,0,1,3.312,5.29h76.535a17.008,17.008,0,0,0,17.008-17.008V128.727h-.009a5.8,5.8,0,0,1-5.288-3.306,11.325,11.325,0,0,0-10.293-6.6H339.241A11.339,11.339,0,0,0,327.9,130.16Z" transform="translate(1103.664 4134.799) rotate(90)" fill="none" stroke="#fff" stroke-miterlimit="10" stroke-width="1"/>
      <path id="Pfad_228" data-name="Pfad 228" d="M337.823,49.374a5.8,5.8,0,0,1-3.312,5.291,11.327,11.327,0,0,0-6.609,10.3V98.979a11.339,11.339,0,0,0,11.339,11.339h76.535a11.325,11.325,0,0,0,10.3-6.609,5.8,5.8,0,0,1,5.292-3.312V66.38a17.008,17.008,0,0,0-17.008-17.008H337.823Z" transform="translate(1103.664 4134.799) rotate(90)" fill="none" stroke="#fff" stroke-miterlimit="10" stroke-width="1"/>
      <path id="Pfad_229" data-name="Pfad 229" d="M.5,179.2a.567.567,0,0,0,.567.567H107.65a.567.567,0,0,0,.567-.567V49.937a.567.567,0,0,0-.567-.567" transform="translate(1103.664 4134.799) rotate(90)" fill="none" stroke="#fff" stroke-miterlimit="10" stroke-width="0.3"/>
      <path id="Pfad_230" data-name="Pfad 230" d="M107.65,244.961a.567.567,0,0,0,.567-.567V180.331a.567.567,0,0,0-.567-.567H1.067a.567.567,0,0,0-.567.567" transform="translate(1103.664 4134.799) rotate(90)" fill="none" stroke="#fff" stroke-miterlimit="10" stroke-width="0.3"/>
      <rect id="Rechteck_274" data-name="Rechteck 274" width="107.717" height="130.394" rx="0.567" transform="translate(989.096 4243.015) rotate(90)" fill="none" stroke="#fff" stroke-miterlimit="10" stroke-width="0.3"/>
      <rect id="Rechteck_275" data-name="Rechteck 275" width="107.717" height="65.197" rx="0.567" transform="translate(1054.293 4243.015) rotate(90)" fill="none" stroke="#fff" stroke-miterlimit="10" stroke-width="0.3"/>
      <rect id="Rechteck_276" data-name="Rechteck 276" width="107.717" height="130.394" rx="0.567" transform="translate(1054.293 4350.731) rotate(90)" fill="none" stroke="#fff" stroke-miterlimit="10" stroke-width="0.3"/>
      <rect id="Rechteck_277" data-name="Rechteck 277" width="107.717" height="65.197" rx="0.567" transform="translate(923.9 4350.731) rotate(90)" fill="none" stroke="#fff" stroke-miterlimit="10" stroke-width="0.3"/>
      <path id="Pfad_231" data-name="Pfad 231" d="M324.216,244.962a.567.567,0,0,1-.567-.567V115.135a.567.567,0,0,1,.567-.567H430.8a.567.567,0,0,1,.567.567" transform="translate(1103.664 4134.799) rotate(90)" fill="none" stroke="#fff" stroke-miterlimit="10" stroke-width="0.3"/>
      <path id="Pfad_232" data-name="Pfad 232" d="M431.366,114a.567.567,0,0,1-.567.567H324.216a.567.567,0,0,1-.567-.567V49.938a.567.567,0,0,1,.567-.567" transform="translate(1103.664 4134.799) rotate(90)" fill="none" stroke="#fff" stroke-miterlimit="10" stroke-width="0.3"/>
    </g>
    <g id="Gruppe_497" data-name="Gruppe 497" transform="translate(30)" opacity="0.5">
      <rect id="Rechteck_278" data-name="Rechteck 278" width="430.866" height="5.669" transform="translate(1094.66 4135.299) rotate(90)" fill="none" stroke="#fff" stroke-miterlimit="10" stroke-width="1"/>
      <path id="Pfad_233" data-name="Pfad 233" d="M425.7.5H6.169A5.669,5.669,0,0,0,.5,6.169V9H431.366V6.169A5.669,5.669,0,0,0,425.7.5Z" transform="translate(1103.664 4134.799) rotate(90)" fill="none" stroke="#fff" stroke-miterlimit="10" stroke-width="1"/>
      <path id="Pfad_234" data-name="Pfad 234" d="M431.366,14.673H.5v2.835a5.669,5.669,0,0,0,5.669,5.669H425.7a5.669,5.669,0,0,0,5.669-5.669Z" transform="translate(1103.664 4134.799) rotate(90)" fill="none" stroke="#fff" stroke-miterlimit="10" stroke-width="1"/>
      <line id="Linie_51" data-name="Linie 51" y1="8.504" transform="translate(1088.99 4458.448) rotate(90)" fill="none" stroke="#fff" stroke-miterlimit="10" stroke-width="0.3"/>
      <line id="Linie_52" data-name="Linie 52" y1="8.504" transform="translate(1088.99 4350.731) rotate(90)" fill="none" stroke="#fff" stroke-miterlimit="10" stroke-width="0.3"/>
      <line id="Linie_53" data-name="Linie 53" y1="8.504" transform="translate(1088.99 4243.016) rotate(90)" fill="none" stroke="#fff" stroke-miterlimit="10" stroke-width="0.3"/>
      <path id="Pfad_235" data-name="Pfad 235" d="M310.664,23.177h25.972a14.12,14.12,0,0,0,1.187-5.669V14.673H309.477v2.835A14.1,14.1,0,0,0,310.664,23.177Z" transform="translate(1103.664 4134.799) rotate(90)" fill="none" stroke="#fff" stroke-miterlimit="10" stroke-width="1"/>
      <path id="Pfad_236" data-name="Pfad 236" d="M202.433,23.177H228.4a14.12,14.12,0,0,0,1.187-5.669V14.673H201.246v2.835A14.1,14.1,0,0,0,202.433,23.177Z" transform="translate(1103.664 4134.799) rotate(90)" fill="none" stroke="#fff" stroke-miterlimit="10" stroke-width="1"/>
      <path id="Pfad_237" data-name="Pfad 237" d="M95.231,23.177H121.2a14.12,14.12,0,0,0,1.187-5.669V14.673H94.044v2.835A14.1,14.1,0,0,0,95.231,23.177Z" transform="translate(1103.664 4134.799) rotate(90)" fill="none" stroke="#fff" stroke-miterlimit="10" stroke-width="1"/>
    </g>
    <text id="_152_mm" data-name="152 mm" transform="translate(648 4356)" fill="#fff" font-size="16" font-family="Roboto-Regular, Roboto"><tspan x="0" y="0">152 mm</tspan></text>
    <text id="_69_mm" data-name="69 mm" transform="translate(869 4647)" fill="#fff" font-size="16" font-family="Roboto-Regular, Roboto"><tspan x="0" y="0">69 mm</tspan></text>
    <text id="_8_mm" data-name="8 mm" transform="translate(1122 4647)" fill="#fff" font-size="16" font-family="Roboto-Regular, Roboto"><tspan x="-20.496" y="0">8 mm</tspan></text>
    <g id="Gruppe_499" data-name="Gruppe 499" transform="translate(-63 13)">
      <line id="Linie_56" data-name="Linie 56" y2="10" transform="translate(1054.5 4602.5)" fill="none" stroke="#fff" stroke-width="1"/>
      <line id="Linie_55" data-name="Linie 55" x2="196" transform="translate(858.5 4607.5)" fill="none" stroke="#fff" stroke-width="1"/>
      <line id="Linie_57" data-name="Linie 57" y2="10" transform="translate(858.701 4602.5)" fill="none" stroke="#fff" stroke-width="1"/>
    </g>
    <g id="Gruppe_501" data-name="Gruppe 501" transform="translate(251.986 13)">
      <line id="Linie_56-2" data-name="Linie 56" y2="10" transform="translate(881.178 4602.5)" fill="none" stroke="#fff" stroke-width="1"/>
      <line id="Linie_55-2" data-name="Linie 55" x2="22.678" transform="translate(858.5 4607.5)" fill="none" stroke="#fff" stroke-width="1"/>
      <line id="Linie_57-2" data-name="Linie 57" y2="10" transform="translate(858.701 4602.5)" fill="none" stroke="#fff" stroke-width="1"/>
    </g>
    <g id="Gruppe_500" data-name="Gruppe 500" transform="translate(5339 3276.799) rotate(90)">
      <line id="Linie_56-3" data-name="Linie 56" y2="10" transform="translate(1289.366 4602.5)" fill="none" stroke="#fff" stroke-width="1"/>
      <line id="Linie_55-3" data-name="Linie 55" x2="430.866" transform="translate(858.5 4607.5)" fill="none" stroke="#fff" stroke-width="1"/>
      <line id="Linie_57-3" data-name="Linie 57" y2="10" transform="translate(858.701 4602.5)" fill="none" stroke="#fff" stroke-width="1"/>
    </g>
  </g>
</svg>
