<svg xmlns="http://www.w3.org/2000/svg" xmlns:xlink="http://www.w3.org/1999/xlink" width="723" height="222" viewBox="0 0 723 222">
  <defs>
    <clipPath id="clip-Web_1920_1">
      <rect width="723" height="222"/>
    </clipPath>
  </defs>
  <g id="Web_1920_1" data-name="Web 1920 – 1" clip-path="url(#clip-Web_1920_1)">
    <rect width="723" height="222" fill="#fff"/>
    <path id="Pfad_5" data-name="Pfad 5" d="M10.78,0H30.338V-34.5a41,41,0,0,1,.924-10.01c2.464-10.01,9.086-18.018,19.25-18.018,9.24,0,10.626,7.238,10.626,15.708V0H80.7V-34.5A42.3,42.3,0,0,1,81.62-44.66c2.31-9.856,8.932-17.864,18.942-17.864,9.086,0,10.78,6.776,10.78,15.708V0H130.9V-50.512c0-20.636-9.394-29.876-25.718-29.876a30.715,30.715,0,0,0-26.8,16.17h-.308c-3.234-10.626-10.934-16.17-22.946-16.17-12.32,0-21.714,8.624-25.564,16.324H29.26a48.661,48.661,0,0,0,.308-5.39V-78.54H10.78ZM145.53-39.27c0,24.178,19.25,41.118,43.274,41.118,23.87,0,43.12-16.94,43.12-41.118,0-24.024-19.25-41.118-43.274-41.118C164.78-80.388,145.53-63.294,145.53-39.27Zm19.866,0c0-14.476,10.626-24.486,23.408-24.486,12.628,0,23.254,10.01,23.254,24.486,0,14.63-10.626,24.486-23.254,24.486C176.022-14.784,165.4-24.64,165.4-39.27ZM251.02-28.8C251.02-2.464,272.734.77,283.668.77a33.767,33.767,0,0,0,6.006-.462V-16.786a17.981,17.981,0,0,1-3.542.308c-5.39,0-15.554-1.848-15.554-14.784V-61.754h17.864V-77.308H270.578V-99.946h-19.1v22.638H240.856v15.554H251.02Zm54.67-63.14h19.4v-17.4h-19.4ZM305.69,0h19.558V-78.54H305.69Zm40.04-24.486C345.73-2,359.128.77,369.908.77a44.588,44.588,0,0,0,6.16-.462V-16.786s-1.386.154-2.926.154c-5.082,0-8.008-2.156-8.008-10.78V-109.34h-19.4ZM385-39.27c0,22.33,16.17,41.118,42.2,41.118a49.074,49.074,0,0,0,31.57-11.242L451.22-23.408s-10.01,8.624-22.638,8.624c-11.7,0-22.33-7.084-23.562-20.79h54.208s.462-5.236.462-7.546c0-20.79-12.166-37.268-34.8-37.268C401.478-80.388,385-63.448,385-39.27Zm20.636-9.7c1.848-10.164,8.778-16.324,18.788-16.324,8.624,0,15.246,5.7,15.554,16.324Z" transform="translate(260.283 145)" fill="#1d1d1b"/>
    <g id="Gruppe_351" data-name="Gruppe 351">
      <path id="Pfad_1" data-name="Pfad 1" d="M436.018,601.554l-42.309-42.309a11.388,11.388,0,0,1,0-16.09l17.9-17.9a11.389,11.389,0,0,1,16.092,0L470,567.568a11.4,11.4,0,0,1,.014,16.076l-17.924,17.91h0A11.372,11.372,0,0,1,436.018,601.554Z" transform="translate(-390.381 -447.074)" fill="#f8794a"/>
      <path id="Pfad_2" data-name="Pfad 2" d="M511.688,585.338l-55.329,55.33a11.416,11.416,0,0,1-16.091,0l-42.309-42.324a11.372,11.372,0,0,1,0-16.076h0l17.91-17.91h0l19.51-19.51.015-.014,17.91-17.91a11.384,11.384,0,0,1,16.076.015l42.308,42.307A11.389,11.389,0,0,1,511.688,585.338Z" transform="translate(-332.795 -424.34)" fill="#e83352"/>
      <path id="Pfad_3" data-name="Pfad 3" d="M437.079,524.365,479.4,566.672a11.416,11.416,0,0,1,0,16.092l-17.909,17.9a11.371,11.371,0,0,1-16.077,0l-42.308-42.308a11.385,11.385,0,0,1-.014-16.077L421,524.365h0A11.372,11.372,0,0,1,437.079,524.365Z" transform="translate(-263.074 -459.2)" fill="#f8794a"/>
      <path id="Pfad_4" data-name="Pfad 4" d="M510,562.425a11.387,11.387,0,0,1,.015,16.078H510l-17.9,17.909h-.015l-19.51,19.51-.015.015-17.909,17.909a11.366,11.366,0,0,1-16.062-.014l-42.323-42.309a11.4,11.4,0,0,1,0-16.076L451.6,520.1a11.417,11.417,0,0,1,16.091,0Z" transform="translate(-355.522 -516.786)" fill="#e83352"/>
    </g>
  </g>
</svg>
