<svg xmlns="http://www.w3.org/2000/svg" width="94.188" height="206.75" viewBox="0 0 94.188 206.75"><g transform="translate(0.365 0.363)"><g transform="translate(0.135 0.137)"><path d="M-13.325-32.222H-90.307a8.113,8.113,0,0,1-8.1-8.122V-229.851a8.112,8.112,0,0,1,8.1-8.121h76.982a8.112,8.112,0,0,1,8.1,8.121V-40.344A8.113,8.113,0,0,1-13.325-32.222Zm8.1-96.107h0a2.759,2.759,0,0,1-2.52-1.581,5.4,5.4,0,0,0-4.907-3.157h-47.27a5.408,5.408,0,0,0-5.4,5.415V-91.1a5.408,5.408,0,0,0,5.4,5.415h47.27a5.4,5.4,0,0,0,4.907-3.157,2.759,2.759,0,0,1,2.52-1.581Zm0-51.437h0a2.764,2.764,0,0,1-2.523-1.583,5.4,5.4,0,0,0-4.906-3.155H-28.858a5.408,5.408,0,0,0-5.4,5.415v36.547a5.408,5.408,0,0,0,5.4,5.415h16.207a5.4,5.4,0,0,0,4.906-3.155,2.764,2.764,0,0,1,2.523-1.583h0Zm-69.552,46.7H-90.982a5.4,5.4,0,0,0-4.906,3.155,2.764,2.764,0,0,1-2.524,1.583v37.9a2.764,2.764,0,0,1,2.524,1.583,5.4,5.4,0,0,0,4.906,3.155h16.207a5.409,5.409,0,0,0,5.4-5.415v-36.547A5.409,5.409,0,0,0-74.775-133.067ZM-43.714-184.5H-90.983a5.4,5.4,0,0,0-4.907,3.157,2.762,2.762,0,0,1-2.521,1.581v37.9a2.762,2.762,0,0,1,2.521,1.581,5.4,5.4,0,0,0,4.907,3.157h47.27a5.409,5.409,0,0,0,5.4-5.415V-179.09A5.409,5.409,0,0,0-43.714-184.5Zm30.388-53.467H-60.6v0a2.77,2.77,0,0,1-1.575,2.525,5.409,5.409,0,0,0-3.145,4.915v36.547a5.408,5.408,0,0,0,5.4,5.415h47.27a5.4,5.4,0,0,0,4.907-3.157,2.759,2.759,0,0,1,2.52-1.581v-36.548A8.112,8.112,0,0,0-13.326-237.972Zm-60.774,0H-90.307a8.113,8.113,0,0,0-8.1,8.122V-193.3h0a2.763,2.763,0,0,1,2.521,1.581,5.4,5.4,0,0,0,4.907,3.157h16.207a5.409,5.409,0,0,0,5.4-5.415v-36.547a5.409,5.409,0,0,0-3.149-4.918A2.769,2.769,0,0,1-74.1-237.972ZM-43.714-81.629H-90.983a5.4,5.4,0,0,0-4.907,3.156,2.762,2.762,0,0,1-2.52,1.581v36.547a8.113,8.113,0,0,0,8.1,8.122h47.276v0a2.766,2.766,0,0,1,1.575-2.525,5.41,5.41,0,0,0,3.145-4.916V-76.215A5.408,5.408,0,0,0-43.714-81.629Zm38.491,4.737a2.762,2.762,0,0,1-2.521-1.581,5.4,5.4,0,0,0-4.907-3.156H-28.858a5.408,5.408,0,0,0-5.4,5.414v36.547a5.409,5.409,0,0,0,3.149,4.918,2.769,2.769,0,0,1,1.578,2.527h16.207a8.113,8.113,0,0,0,8.1-8.122V-76.892Z" transform="translate(98.411 237.972)" fill="none" stroke="#1c1c1c" stroke-width="1"/></g><g transform="translate(0 0.002)"><path d="M-4.921,0a.271.271,0,0,0-.271.271V51.234a.27.27,0,0,0,.271.271H56.843a.27.27,0,0,0,.271-.271m-93.458,0a.27.27,0,0,0,.271.271H-5.464a.271.271,0,0,0,.271-.271V.271A.271.271,0,0,0-5.464,0M25.689,103.01H-36.075a.271.271,0,0,1-.271-.271V51.776a.271.271,0,0,1,.271-.271H25.689a.271.271,0,0,1,.271.271v50.963A.271.271,0,0,1,25.689,103.01Zm31.153,0H26.231a.27.27,0,0,1-.271-.271V51.776a.271.271,0,0,1,.271-.271H56.842a.271.271,0,0,1,.271.271v50.963A.27.27,0,0,1,56.842,103.01ZM-4.921,154.515H56.843a.271.271,0,0,0,.271-.271V103.281a.271.271,0,0,0-.271-.271H-4.921a.271.271,0,0,0-.271.271v50.963A.271.271,0,0,0-4.921,154.515Zm-31.153,0H-5.464a.272.272,0,0,0,.271-.271V103.281a.272.272,0,0,0-.271-.271H-36.075a.271.271,0,0,0-.271.271v50.963A.271.271,0,0,0-36.075,154.515Zm-.271.271a.271.271,0,0,1,.271-.271H25.689a.271.271,0,0,1,.271.271v50.963a.272.272,0,0,1-.271.271m.542,0a.271.271,0,0,1-.271-.271V154.786a.27.27,0,0,1,.271-.271H56.842a.27.27,0,0,1,.271.271" transform="translate(36.346)" fill="none" stroke="#1c1c1c" stroke-width="0.3"/></g></g></svg>