<svg xmlns="http://www.w3.org/2000/svg" width="187.961" height="258.285" viewBox="0 0 187.961 258.285"><g transform="translate(0.5 0.365)"><g transform="translate(0 0.135)"><path d="M278.246-30.9h-170.7a8.127,8.127,0,0,1-8.128-8.125V-280.055a8.126,8.126,0,0,1,8.128-8.125h170.7a8.126,8.126,0,0,1,8.129,8.125V-39.022A8.127,8.127,0,0,1,278.246-30.9ZM123.126-183.235H106.869a5.413,5.413,0,0,0-4.921,3.156,2.774,2.774,0,0,1-2.531,1.584v37.915A2.773,2.773,0,0,1,101.947-139a5.413,5.413,0,0,0,4.921,3.156h16.257a5.418,5.418,0,0,0,5.419-5.417v-36.561A5.418,5.418,0,0,0,123.126-183.235Zm31.158-51.456H106.867a5.411,5.411,0,0,0-4.921,3.157,2.772,2.772,0,0,1-2.529,1.582v37.916a2.772,2.772,0,0,1,2.529,1.582,5.411,5.411,0,0,0,4.921,3.157h47.417a5.417,5.417,0,0,0,5.419-5.416v-36.562A5.417,5.417,0,0,0,154.284-234.692ZM123.8-288.18H107.545a8.126,8.126,0,0,0-8.128,8.125v36.561h0a2.771,2.771,0,0,1,2.529,1.582,5.414,5.414,0,0,0,4.922,3.158h16.257a5.418,5.418,0,0,0,5.419-5.417v-36.561a5.41,5.41,0,0,0-3.159-4.919A2.77,2.77,0,0,1,123.8-288.18Z" transform="translate(-99.417 288.18)" fill="none" stroke="#1c1c1c" stroke-width="1"/></g><g transform="translate(0.058)"><path d="M-4.921,0a.271.271,0,0,0-.271.271V51.225a.27.27,0,0,0,.271.271H56.843a.27.27,0,0,0,.271-.271m-93.458,0a.27.27,0,0,0,.271.271H-5.464a.271.271,0,0,0,.271-.271V.271A.271.271,0,0,0-5.464,0M25.689,102.991H-36.075a.271.271,0,0,1-.271-.271V51.766a.271.271,0,0,1,.271-.271H25.689a.271.271,0,0,1,.271.271V102.72A.271.271,0,0,1,25.689,102.991Zm-61.763,51.5H-5.464a.271.271,0,0,0,.271-.271V103.262a.271.271,0,0,0-.271-.271H-36.075a.271.271,0,0,0-.271.271v50.953A.27.27,0,0,0-36.075,154.486Z" transform="translate(36.346)" fill="none" stroke="#1c1c1c" stroke-width="0.3"/></g><g transform="translate(126.997 0.135)"><path d="M-5.7-16.418h16.17a5.383,5.383,0,0,1,4.894,3.152,2.758,2.758,0,0,0,2.518,1.582V26.192a2.758,2.758,0,0,0-2.518,1.582,5.383,5.383,0,0,1-4.894,3.152H-5.7a5.4,5.4,0,0,1-5.39-5.411V-11.008A5.4,5.4,0,0,1-5.7-16.418Zm-30.991-51.4H10.473a5.381,5.381,0,0,1,4.9,3.154,2.756,2.756,0,0,0,2.516,1.58v37.876h0a2.756,2.756,0,0,0-2.516,1.58,5.381,5.381,0,0,1-4.9,3.154H-36.688a5.4,5.4,0,0,1-5.39-5.411V-62.411A5.4,5.4,0,0,1-36.688-67.822Zm30.317-53.433H9.8a8.1,8.1,0,0,1,8.085,8.117v36.523h0a2.755,2.755,0,0,0-2.515,1.581,5.384,5.384,0,0,1-4.9,3.153H-5.7a5.4,5.4,0,0,1-5.39-5.411v-36.523a5.408,5.408,0,0,1,3.142-4.915A2.766,2.766,0,0,0-6.371-121.255Z" transform="translate(42.078 121.255)" fill="none" stroke="#1c1c1c" stroke-width="1"/></g><g transform="translate(31.25)"><path d="M-19.483,0a.271.271,0,0,1,.271.271V51.225a.27.27,0,0,1-.271.271H-81.277a.271.271,0,0,1-.271-.271m93.505,0a.271.271,0,0,1-.271.271H-18.941a.271.271,0,0,1-.271-.271V.271A.271.271,0,0,1-18.941,0M-50.109,102.991H11.686a.271.271,0,0,0,.271-.271V51.766a.271.271,0,0,0-.271-.271H-50.109a.27.27,0,0,0-.271.271V102.72A.27.27,0,0,0-50.109,102.991Zm61.793,51.5H-18.941a.271.271,0,0,1-.271-.271V103.262a.271.271,0,0,1,.271-.271H11.685a.271.271,0,0,1,.271.271v50.953A.271.271,0,0,1,11.685,154.486Zm-124.13-51.5h61.794a.271.271,0,0,0,.271-.271V51.766a.271.271,0,0,0-.271-.271h-61.794a.27.27,0,0,0-.271.271V102.72A.27.27,0,0,0-112.445,102.991ZM-81.277,51.5h61.794a.271.271,0,0,0,.271-.271V.271A.271.271,0,0,0-19.483,0H-81.277a.271.271,0,0,0-.271.271V51.225A.271.271,0,0,0-81.277,51.5Zm-62.337,0H-81.82a.272.272,0,0,0,.271-.271V.271A.272.272,0,0,0-81.82,0h-61.794a.272.272,0,0,0-.271.271V51.225A.272.272,0,0,0-143.615,51.5Z" transform="translate(143.886)" fill="none" stroke="#1c1c1c" stroke-width="0.3"/></g><g transform="translate(33.422 0.135)"><path d="M-8.611-.4a2.762,2.762,0,0,1-1.577-2.52v0H-58.867v0A2.761,2.761,0,0,1-60.444-.4,5.4,5.4,0,0,0-63.591,4.51V40.987a5.405,5.405,0,0,0,5.407,5.4h47.313a5.405,5.405,0,0,0,5.407-5.4V4.51A5.4,5.4,0,0,0-8.611-.4Zm62.183,0A2.761,2.761,0,0,1,52-2.916v0H3.317v0A2.761,2.761,0,0,1,1.74-.4,5.4,5.4,0,0,0-1.408,4.51V40.987A5.405,5.405,0,0,0,4,46.39H51.313a5.405,5.405,0,0,0,5.407-5.4V4.51A5.4,5.4,0,0,0,53.573-.4ZM20.222,97.728H-27.093a5.406,5.406,0,0,1-5.408-5.4V55.847a5.406,5.406,0,0,1,5.408-5.4H20.222a5.405,5.405,0,0,1,5.407,5.4V92.324A5.405,5.405,0,0,1,20.222,97.728Z" transform="translate(63.591 2.92)" fill="none" stroke="#1c1c1c" stroke-width="1"/></g><g transform="translate(31.25 103.069)"><path d="M-.042-8.053H61.684a.271.271,0,0,0,.271-.271V-59.2a.271.271,0,0,0-.271-.271H-.042a.27.27,0,0,0-.271.271V-8.323A.27.27,0,0,0-.042-8.053Z" transform="translate(0.313 59.471)" fill="none" stroke="#1c1c1c" stroke-width="0.3"/></g><g transform="translate(33.418 105.239)"><path d="M-8.229-7.373H-55.381a5.384,5.384,0,0,1-5.389-5.38V-49.072a5.384,5.384,0,0,1,5.389-5.38H-8.229a5.385,5.385,0,0,1,5.389,5.38v36.318A5.385,5.385,0,0,1-8.229-7.373Z" transform="translate(60.77 54.452)" fill="none" stroke="#1c1c1c" stroke-width="1"/></g><g transform="translate(93.637 103.069)"><path d="M-.042-8.053H61.683a.271.271,0,0,0,.271-.271V-59.2a.271.271,0,0,0-.271-.271H-.042a.27.27,0,0,0-.271.271V-8.323A.27.27,0,0,0-.042-8.053Z" transform="translate(0.313 59.471)" fill="none" stroke="#1c1c1c" stroke-width="0.3"/></g><g transform="translate(95.805 105.237)"><path d="M-8.248-7.415H-55.515a5.406,5.406,0,0,1-5.4-5.411V-49.349a5.406,5.406,0,0,1,5.4-5.411H-8.248a5.406,5.406,0,0,1,5.4,5.411v36.524A5.406,5.406,0,0,1-8.248-7.415ZM5.931,97.422H22.137a8.11,8.11,0,0,0,8.1-8.117V52.782h0A2.763,2.763,0,0,1,27.717,51.2a5.4,5.4,0,0,0-4.906-3.154H6.606a5.406,5.406,0,0,0-5.4,5.412V89.981A5.405,5.405,0,0,0,4.353,94.9,2.768,2.768,0,0,1,5.931,97.422Z" transform="translate(60.917 54.76)" fill="none" stroke="#1c1c1c" stroke-width="1"/></g><g transform="translate(93.637 206.137)"><path d="M-9.715-8.053a.27.27,0,0,0,.271-.271V-59.2a.27.27,0,0,0-.271-.271H-71.479a.27.27,0,0,0-.271.271m93.458,0a.27.27,0,0,0-.271-.271H-9.173a.271.271,0,0,0-.271.271V-8.323a.271.271,0,0,0,.271.271" transform="translate(71.75 59.471)" fill="none" stroke="#1c1c1c" stroke-width="0.3"/></g><g transform="translate(0.197 208.305)"><path d="M-3.772-7.692H-19.831a8.052,8.052,0,0,1-8.029-8.074V-52.1h0a2.738,2.738,0,0,0,2.5-1.573A5.345,5.345,0,0,1-20.5-56.805H-4.441A5.368,5.368,0,0,1,.912-51.423v36.33A5.379,5.379,0,0,1-2.208-10.2,2.755,2.755,0,0,0-3.772-7.692Z" transform="translate(27.86 56.805)" fill="none" stroke="#1c1c1c" stroke-width="1"/></g><g transform="translate(0.062 206.137)"><path d="M-4.924-8.053a.27.27,0,0,1-.271-.271V-59.2a.27.27,0,0,1,.271-.271H56.871a.271.271,0,0,1,.271.271m-93.505,0a.27.27,0,0,1,.271-.271H-5.466a.271.271,0,0,1,.271.271V-8.323a.271.271,0,0,1-.271.271M56.871-59.471H-4.924a.27.27,0,0,0-.271.271V-8.323a.271.271,0,0,0,.271.271H56.871a.271.271,0,0,0,.271-.271V-59.2A.271.271,0,0,0,56.871-59.471Zm62.337,0H57.414a.271.271,0,0,0-.271.271V-8.323a.272.272,0,0,0,.271.271h61.794a.272.272,0,0,0,.271-.271V-59.2A.271.271,0,0,0,119.208-59.471Z" transform="translate(36.363 59.471)" fill="none" stroke="#1c1c1c" stroke-width="0.3"/></g><g transform="translate(0.197 156.771)"><path d="M-15.429-15.367a2.762,2.762,0,0,1,1.578,2.52v0H34.862v0a2.761,2.761,0,0,1,1.578-2.52,5.4,5.4,0,0,0,3.15-4.906V-56.749a5.407,5.407,0,0,0-5.411-5.4H-13.167a5.407,5.407,0,0,0-5.411,5.4v36.476A5.4,5.4,0,0,0-15.429-15.367Zm-62.227,0a2.761,2.761,0,0,1,1.578,2.52v0h48.713v0a2.762,2.762,0,0,1,1.578-2.52,5.4,5.4,0,0,0,3.15-4.906V-56.749a5.407,5.407,0,0,0-5.411-5.4H-75.394a5.407,5.407,0,0,0-5.411,5.4v36.476A5.4,5.4,0,0,0-77.656-15.367Zm18.495-98.123h-47.346a5.4,5.4,0,0,0-4.914,3.15,2.767,2.767,0,0,1-2.525,1.579v37.827a2.767,2.767,0,0,1,2.525,1.579,5.4,5.4,0,0,0,4.914,3.15h47.346a5.407,5.407,0,0,0,5.411-5.4v-36.476A5.407,5.407,0,0,0-59.161-113.49Z" transform="translate(113.947 113.49)" fill="none" stroke="#1c1c1c" stroke-width="1"/></g><g transform="translate(0.062 154.601)"><path d="M-9.709-8.053H-71.435a.271.271,0,0,1-.271-.271V-59.2a.271.271,0,0,1,.271-.271H-9.709a.27.27,0,0,1,.271.271V-8.323A.27.27,0,0,1-9.709-8.053Z" transform="translate(71.706 59.471)" fill="none" stroke="#1c1c1c" stroke-width="0.3"/></g><g transform="translate(126.997 156.771)"><path d="M-.844,0H46.317a5.384,5.384,0,0,1,4.9,3.136,2.757,2.757,0,0,0,2.516,1.572V42.371a2.757,2.757,0,0,0-2.516,1.572,5.382,5.382,0,0,1-4.9,3.136H-.844a5.385,5.385,0,0,1-5.39-5.38V5.38A5.385,5.385,0,0,1-.844,0Z" transform="translate(6.234)" fill="none" stroke="#1c1c1c" stroke-width="1"/></g><g transform="translate(62.445 154.601)"><path d="M-9.8-8.053H51.98a.27.27,0,0,0,.271-.271V-59.2a.27.27,0,0,0-.271-.271H-9.8a.27.27,0,0,0-.271.271V-8.323A.27.27,0,0,0-9.8-8.053Zm-62.325,0h61.783a.271.271,0,0,0,.271-.271V-59.2a.271.271,0,0,0-.271-.271H-72.128a.27.27,0,0,0-.271.271V-8.323A.27.27,0,0,0-72.128-8.053Z" transform="translate(72.399 59.471)" fill="none" stroke="#1c1c1c" stroke-width="0.3"/></g><g transform="translate(64.614 156.771)"><path d="M-8.229-7.373H-55.381a5.384,5.384,0,0,1-5.389-5.38V-49.072a5.384,5.384,0,0,1,5.389-5.38H-8.229a5.385,5.385,0,0,1,5.389,5.38v36.318A5.385,5.385,0,0,1-8.229-7.373Z" transform="translate(60.77 54.452)" fill="none" stroke="#1c1c1c" stroke-width="1"/></g></g></svg>