<?xml version="1.0" encoding="utf-8"?>
<!-- Generator: Adobe Illustrator 26.0.3, SVG Export Plug-In . SVG Version: 6.00 Build 0)  -->
<svg version="1.1" id="Ebene_1" xmlns="http://www.w3.org/2000/svg" xmlns:xlink="http://www.w3.org/1999/xlink" x="0px" y="0px"
	 viewBox="0 0 188 258.3" style="enable-background:new 0 0 188 258.3;" xml:space="preserve">
<style type="text/css">
	.st0{fill:none;stroke:#1C1C1C;}
	.st1{fill:none;stroke:#1C1C1C;stroke-width:0.3;}
</style>
<g transform="translate(0.5 0.365)">
	<g transform="translate(0 0.135)">
		<path class="st0" d="M178.8,257.3H8.1c-4.5,0-8.1-3.6-8.1-8.1V8.1C-0.1,3.6,3.6,0,8.1,0c0,0,0,0,0,0h170.7c4.5,0,8.1,3.6,8.1,8.1
			c0,0,0,0,0,0v241C186.9,253.6,183.2,257.3,178.8,257.3z M23.6,104.9H7.4c-2.1,0-4,1.2-4.9,3.2c-0.5,1-1.5,1.6-2.5,1.6v37.9
			c1.1,0,2.1,0.6,2.5,1.6c0.9,1.9,2.8,3.2,4.9,3.2h16.3c3,0,5.4-2.4,5.4-5.4v-36.6C29.1,107.4,26.6,104.9,23.6,104.9z M54.8,53.5
			H7.4c-2.1,0-4,1.2-4.9,3.2c-0.5,1-1.4,1.6-2.5,1.6v37.9c1.1,0,2.1,0.6,2.5,1.6c0.9,1.9,2.8,3.2,4.9,3.2h47.4c3,0,5.4-2.4,5.4-5.4
			c0,0,0,0,0,0V58.9C60.2,55.9,57.8,53.5,54.8,53.5C54.8,53.5,54.8,53.5,54.8,53.5L54.8,53.5z M24.3,0H8.1C3.6,0-0.1,3.6-0.1,8.1
			c0,0,0,0,0,0v36.6l0,0c1.1,0,2.1,0.6,2.5,1.6c0.9,1.9,2.8,3.2,4.9,3.2h16.3c3,0,5.4-2.4,5.4-5.4v0V7.4c0-2.1-1.2-4-3.2-4.9
			C24.9,2.1,24.3,1.1,24.3,0z"/>
	</g>
	<g transform="translate(0.058)">
		<path class="st1" d="M31.4,0c-0.1,0-0.3,0.1-0.3,0.3v51c0,0.1,0.1,0.3,0.3,0.3c0,0,0,0,0,0h61.8c0.1,0,0.3-0.1,0.3-0.3
			c0,0,0,0,0,0 M-0.1,51.2c0,0.1,0.1,0.3,0.3,0.3c0,0,0,0,0,0h30.6c0.1,0,0.3-0.1,0.3-0.3v-51C31.1,0.1,31,0,30.8,0 M62,103H0.2
			c-0.1,0-0.3-0.1-0.3-0.3l0,0v-51c0-0.1,0.1-0.3,0.3-0.3H62c0.1,0,0.3,0.1,0.3,0.3v51C62.2,102.9,62.1,103,62,103z M0.2,154.5h30.6
			c0.1,0,0.3-0.1,0.3-0.3v-51c0-0.1-0.1-0.3-0.3-0.3c0,0,0,0,0,0H0.2c-0.1,0-0.3,0.1-0.3,0.3l0,0v51C-0.1,154.4,0.1,154.5,0.2,154.5
			C0.2,154.5,0.2,154.5,0.2,154.5L0.2,154.5z"/>
	</g>
	<g transform="translate(126.997 0.135)">
		<path class="st0" d="M36.3,104.8h16.2c2.1,0,4,1.2,4.9,3.2c0.5,1,1.4,1.6,2.5,1.6v37.9c-1.1,0-2.1,0.6-2.5,1.6
			c-0.9,1.9-2.8,3.2-4.9,3.2H36.3c-3,0-5.4-2.4-5.4-5.4c0,0,0,0,0,0v-36.5C30.9,107.3,33.3,104.8,36.3,104.8
			C36.3,104.8,36.3,104.8,36.3,104.8z M5.3,53.4h47.2c2.1,0,4,1.2,4.9,3.2c0.5,1,1.4,1.6,2.5,1.6V96l0,0c-1.1,0-2.1,0.6-2.5,1.6
			c-0.9,1.9-2.8,3.2-4.9,3.2H5.3c-3,0-5.4-2.4-5.4-5.4c0,0,0,0,0,0V58.8C-0.1,55.9,2.3,53.4,5.3,53.4C5.3,53.4,5.3,53.4,5.3,53.4
			L5.3,53.4z M35.6,0h16.2c4.5,0,8.1,3.6,8.1,8.1c0,0,0,0,0,0v36.5l0,0c-1.1,0-2.1,0.6-2.5,1.6c-0.9,1.9-2.8,3.2-4.9,3.2H36.3
			c-3,0-5.4-2.4-5.4-5.4c0,0,0,0,0,0V7.4c0-2.1,1.2-4,3.1-4.9C35,2.1,35.7,1.1,35.6,0L35.6,0z"/>
	</g>
	<g transform="translate(31.25)">
		<path class="st1" d="M124.3,0c0.1,0,0.3,0.1,0.3,0.3v51c0,0.1-0.1,0.3-0.3,0.3c0,0,0,0,0,0H62.5c-0.1,0-0.3-0.1-0.3-0.3v0
			 M155.8,51.2c0,0.1-0.1,0.3-0.3,0.3h-30.6c-0.1,0-0.3-0.1-0.3-0.3v-51c0-0.1,0.1-0.3,0.3-0.3 M93.7,103h61.8
			c0.1,0,0.3-0.1,0.3-0.3l0,0v-51c0-0.1-0.1-0.3-0.3-0.3H93.7c-0.1,0-0.3,0.1-0.3,0.3c0,0,0,0,0,0v51C93.4,102.9,93.6,103,93.7,103
			C93.7,103,93.7,103,93.7,103z M155.5,154.5h-30.6c-0.1,0-0.3-0.1-0.3-0.3v-51c0-0.1,0.1-0.3,0.3-0.3c0,0,0,0,0,0h30.6
			c0.1,0,0.3,0.1,0.3,0.3l0,0v51C155.8,154.4,155.7,154.5,155.5,154.5L155.5,154.5z M31.4,103h61.8c0.1,0,0.3-0.1,0.3-0.3l0,0v-51
			c0-0.1-0.1-0.3-0.3-0.3H31.4c-0.1,0-0.3,0.1-0.3,0.3c0,0,0,0,0,0v51C31.1,102.9,31.2,103,31.4,103C31.4,103,31.4,103,31.4,103
			L31.4,103z M62.5,51.5h61.8c0.1,0,0.3-0.1,0.3-0.3v-51c0-0.1-0.1-0.3-0.3-0.3H62.5c-0.1,0-0.3,0.1-0.3,0.3c0,0,0,0,0,0v51
			C62.3,51.4,62.4,51.5,62.5,51.5C62.5,51.5,62.5,51.5,62.5,51.5z M0.2,51.5H62c0.1,0,0.3-0.1,0.3-0.3v-51C62.3,0.1,62.1,0,62,0H0.2
			C0.1,0-0.1,0.1-0.1,0.3v51C-0.1,51.4,0.1,51.5,0.2,51.5C0.2,51.5,0.2,51.5,0.2,51.5L0.2,51.5z"/>
	</g>
	<g transform="translate(33.422 0.135)">
		<path class="st0" d="M54.9,2.5c-1-0.5-1.6-1.4-1.6-2.5l0,0H4.7l0,0c0,1.1-0.6,2.1-1.6,2.5C1.2,3.4-0.1,5.3-0.1,7.4v36.5
			c0,3,2.4,5.4,5.4,5.4h47.3c3,0,5.4-2.4,5.4-5.4V7.4C58.1,5.3,56.8,3.4,54.9,2.5z M117.1,2.5c-1-0.5-1.6-1.4-1.6-2.5l0,0H66.8l0,0
			c0,1.1-0.6,2.1-1.6,2.5c-1.9,0.9-3.1,2.8-3.1,4.9v36.5c0,3,2.4,5.4,5.4,5.4c0,0,0,0,0,0h47.3c3,0,5.4-2.4,5.4-5.4V7.4
			C120.2,5.3,119,3.4,117.1,2.5L117.1,2.5z M83.7,100.6H36.4c-3,0-5.4-2.4-5.4-5.4V58.8c0-3,2.4-5.4,5.4-5.4h47.3
			c3,0,5.4,2.4,5.4,5.4v36.5C89.2,98.2,86.7,100.6,83.7,100.6C83.7,100.6,83.7,100.6,83.7,100.6z"/>
	</g>
	<g transform="translate(31.25 103.069)">
		<path class="st1" d="M0.2,51.4h61.7c0.1,0,0.3-0.1,0.3-0.3V0.3c0-0.1-0.1-0.3-0.3-0.3H0.2C0.1,0-0.1,0.1-0.1,0.3c0,0,0,0,0,0v50.9
			C-0.1,51.3,0.1,51.4,0.2,51.4C0.2,51.4,0.2,51.4,0.2,51.4z"/>
	</g>
	<g transform="translate(33.418 105.239)">
		<path class="st0" d="M52.5,47.1H5.3c-3,0-5.4-2.4-5.4-5.4c0,0,0,0,0,0V5.4c0-3,2.4-5.4,5.4-5.4c0,0,0,0,0,0h47.2
			c3,0,5.4,2.4,5.4,5.4v36.3C57.9,44.7,55.4,47.1,52.5,47.1z"/>
	</g>
	<g transform="translate(93.637 103.069)">
		<path class="st1" d="M0.2,51.4h61.7c0.1,0,0.3-0.1,0.3-0.3V0.3c0-0.1-0.1-0.3-0.3-0.3H0.2C0.1,0-0.1,0.1-0.1,0.3c0,0,0,0,0,0v50.9
			C-0.1,51.3,0.1,51.4,0.2,51.4C0.2,51.4,0.2,51.4,0.2,51.4z"/>
	</g>
	<g transform="translate(95.805 105.237)">
		<path class="st0" d="M52.6,47.3H5.3c-3,0-5.4-2.4-5.4-5.4V5.4c0-3,2.4-5.4,5.4-5.4h47.3c3,0,5.4,2.4,5.4,5.4v36.5
			C58,44.9,55.6,47.3,52.6,47.3z M66.8,152.2H83c4.5,0,8.1-3.6,8.1-8.1v-36.5l0,0c-1.1,0-2.1-0.6-2.5-1.6c-0.9-1.9-2.8-3.2-4.9-3.2
			H67.5c-3,0-5.4,2.4-5.4,5.4c0,0,0,0,0,0v36.5c0,2.1,1.2,4,3.1,4.9C66.2,150.1,66.8,151.1,66.8,152.2z"/>
	</g>
	<g transform="translate(93.637 206.137)">
		<path class="st1" d="M62,51.4c0.1,0,0.3-0.1,0.3-0.3c0,0,0,0,0,0V0.3C62.2,0.1,62.1,0,62,0c0,0,0,0,0,0H0.2C0.1,0-0.1,0.1-0.1,0.3
			c0,0,0,0,0,0 M93.4,0.3c0-0.1-0.1-0.3-0.3-0.3c0,0,0,0,0,0H62.5c-0.1,0-0.3,0.1-0.3,0.3v50.9c0,0.1,0.1,0.3,0.3,0.3"/>
	</g>
	<g transform="translate(0.197 208.305)">
		<path class="st0" d="M24,49.1H8c-4.4,0-8-3.6-8-8.1V4.7l0,0c1.1,0,2-0.6,2.5-1.6C3.3,1.2,5.2,0,7.3,0h16.1c3,0,5.4,2.4,5.4,5.4
			v36.3c0,2.1-1.2,4-3.1,4.9C24.6,47.1,24,48,24,49.1z"/>
	</g>
	<g transform="translate(0.062 206.137)">
		<path class="st1" d="M31.4,51.4c-0.1,0-0.3-0.1-0.3-0.3c0,0,0,0,0,0V0.3c0-0.1,0.1-0.3,0.3-0.3c0,0,0,0,0,0h61.8
			c0.1,0,0.3,0.1,0.3,0.3 M-0.1,0.3C-0.1,0.1,0.1,0,0.2,0c0,0,0,0,0,0h30.6c0.1,0,0.3,0.1,0.3,0.3v50.9c0,0.1-0.1,0.3-0.3,0.3
			 M93.2,0H31.4c-0.1,0-0.3,0.1-0.3,0.3c0,0,0,0,0,0v50.9c0,0.1,0.1,0.3,0.3,0.3h61.8c0.1,0,0.3-0.1,0.3-0.3V0.3
			C93.4,0.1,93.3,0,93.2,0z M155.5,0H93.7c-0.1,0-0.3,0.1-0.3,0.3v50.9c0,0.1,0.1,0.3,0.3,0.3h61.8c0.1,0,0.3-0.1,0.3-0.3V0.3
			C155.8,0.1,155.7,0,155.5,0L155.5,0z"/>
	</g>
	<g transform="translate(0.197 156.771)">
		<path class="st0" d="M98.5,98.1c1,0.5,1.6,1.4,1.6,2.5l0,0h48.7l0,0c0-1.1,0.6-2.1,1.6-2.5c1.9-0.9,3.1-2.8,3.2-4.9V56.7
			c0-3-2.4-5.4-5.4-5.4h-47.3c-3,0-5.4,2.4-5.4,5.4v36.5C95.3,95.3,96.5,97.2,98.5,98.1z M36.2,98.1c1,0.5,1.6,1.4,1.6,2.5l0,0h48.7
			l0,0c0-1.1,0.6-2.1,1.6-2.5c1.9-0.9,3.1-2.8,3.2-4.9V56.7c0-3-2.4-5.4-5.4-5.4H38.5c-3,0-5.4,2.4-5.4,5.4v36.5
			C33.1,95.3,34.3,97.2,36.2,98.1z M54.7,0H7.4c-2.1,0-4,1.2-4.9,3.2C2,4.1,1,4.7-0.1,4.7v37.8c1.1,0,2.1,0.6,2.5,1.6
			c0.9,1.9,2.8,3.2,4.9,3.2h47.3c3,0,5.4-2.4,5.4-5.4V5.4C60.1,2.4,57.7,0,54.7,0C54.7,0,54.7,0,54.7,0z"/>
	</g>
	<g transform="translate(0.062 154.601)">
		<path class="st1" d="M61.9,51.4H0.2c-0.1,0-0.3-0.1-0.3-0.3c0,0,0,0,0,0V0.3C-0.1,0.1,0.1,0,0.2,0l0,0h61.7c0.1,0,0.3,0.1,0.3,0.3
			c0,0,0,0,0,0v50.9C62.2,51.3,62.1,51.4,61.9,51.4C61.9,51.4,61.9,51.4,61.9,51.4z"/>
	</g>
	<g transform="translate(126.997 156.771)">
		<path class="st0" d="M5.3,0h47.2c2.1,0,4,1.2,4.9,3.1c0.5,1,1.4,1.6,2.5,1.6v37.7c-1.1,0-2.1,0.6-2.5,1.6
			c-0.9,1.9-2.8,3.1-4.9,3.1H5.3c-3,0-5.4-2.4-5.4-5.4v0V5.4C-0.1,2.4,2.3,0,5.3,0C5.3,0,5.3,0,5.3,0z"/>
	</g>
	<g transform="translate(62.445 154.601)">
		<path class="st1" d="M62.5,51.4h61.8c0.1,0,0.3-0.1,0.3-0.3c0,0,0,0,0,0V0.3c0-0.1-0.1-0.3-0.3-0.3c0,0,0,0,0,0H62.5
			c-0.1,0-0.3,0.1-0.3,0.3c0,0,0,0,0,0v50.9C62.3,51.3,62.4,51.4,62.5,51.4C62.5,51.4,62.5,51.4,62.5,51.4z M0.2,51.4H62
			c0.1,0,0.3-0.1,0.3-0.3V0.3C62.3,0.1,62.1,0,62,0H0.2C0.1,0-0.1,0.1-0.1,0.3c0,0,0,0,0,0v50.9C-0.1,51.3,0.1,51.4,0.2,51.4
			C0.2,51.4,0.2,51.4,0.2,51.4L0.2,51.4z"/>
	</g>
	<g transform="translate(64.614 156.771)">
		<path class="st0" d="M52.5,47.1H5.3c-3,0-5.4-2.4-5.4-5.4c0,0,0,0,0,0V5.4c0-3,2.4-5.4,5.4-5.4c0,0,0,0,0,0h47.2
			c3,0,5.4,2.4,5.4,5.4v36.3C57.9,44.7,55.4,47.1,52.5,47.1z"/>
	</g>
</g>
</svg>
