<?xml version="1.0" encoding="utf-8"?>
<!-- Generator: Adobe Illustrator 26.0.3, SVG Export Plug-In . SVG Version: 6.00 Build 0)  -->
<svg version="1.1" id="Ebene_1" xmlns="http://www.w3.org/2000/svg" xmlns:xlink="http://www.w3.org/1999/xlink" x="0px" y="0px"
	 viewBox="0 0 188 258.3" style="enable-background:new 0 0 188 258.3;" xml:space="preserve">
<style type="text/css">
	.st0{fill:none;stroke:#1C1C1C;}
	.st1{fill:none;stroke:#1C1C1C;stroke-width:0.3;}
</style>
<g transform="translate(0.365 0.363)">
	<g transform="translate(0.135 0.137)">
		<path class="st0" d="M135.9,229.4h-77c-4.5,0-8.1-3.6-8.1-8.1V31.8c0-4.5,3.6-8.1,8.1-8.1h77c4.5,0,8.1,3.6,8.1,8.1v189.5
			C144,225.8,140.4,229.4,135.9,229.4z M144,133.3L144,133.3c-1.1,0-2.1-0.6-2.5-1.6c-0.9-1.9-2.8-3.2-4.9-3.2H89.3
			c-3,0-5.4,2.4-5.4,5.4v36.6c0,3,2.4,5.4,5.4,5.4h47.3c2.1,0,4-1.2,4.9-3.2c0.5-1,1.4-1.6,2.5-1.6L144,133.3z M144,81.9L144,81.9
			c-1.1,0-2.1-0.6-2.5-1.6c-0.9-1.9-2.8-3.2-4.9-3.2h-16.2c-3,0-5.4,2.4-5.4,5.4v36.5c0,3,2.4,5.4,5.4,5.4h16.2c2.1,0,4-1.2,4.9-3.2
			c0.5-1,1.4-1.6,2.5-1.6l0,0L144,81.9z M74.4,128.6H58.2c-2.1,0-4,1.2-4.9,3.2c-0.5,1-1.4,1.6-2.5,1.6v37.9c1.1,0,2.1,0.6,2.5,1.6
			c0.9,1.9,2.8,3.2,4.9,3.2h16.2c3,0,5.4-2.4,5.4-5.4V134C79.8,131,77.4,128.6,74.4,128.6L74.4,128.6z M105.5,77.2H58.2
			c-2.1,0-4,1.2-4.9,3.2c-0.5,1-1.4,1.6-2.5,1.6v37.9c1.1,0,2.1,0.6,2.5,1.6c0.9,1.9,2.8,3.2,4.9,3.2h47.3c3,0,5.4-2.4,5.4-5.4V82.6
			C110.9,79.6,108.5,77.2,105.5,77.2z M135.9,23.7H88.6l0,0c0,1.1-0.6,2.1-1.6,2.5c-1.9,0.9-3.1,2.8-3.1,4.9v36.5
			c0,3,2.4,5.4,5.4,5.4h47.3c2.1,0,4-1.2,4.9-3.2c0.5-1,1.4-1.6,2.5-1.6V31.8C144,27.3,140.4,23.7,135.9,23.7L135.9,23.7z
			 M75.1,23.7H58.9c-4.5,0-8.1,3.6-8.1,8.1v36.5l0,0c1.1,0,2.1,0.6,2.5,1.6c0.9,1.9,2.8,3.2,4.9,3.2h16.2c3,0,5.4-2.4,5.4-5.4V31.1
			c0-2.1-1.2-4-3.1-4.9C75.7,25.8,75.1,24.8,75.1,23.7L75.1,23.7z M105.5,180H58.2c-2.1,0-4,1.2-4.9,3.2c-0.5,1-1.4,1.6-2.5,1.6
			v36.5c0,4.5,3.6,8.1,8.1,8.1h47.3l0,0c0-1.1,0.6-2.1,1.6-2.5c1.9-0.9,3.1-2.8,3.1-4.9v-36.6C110.9,182.5,108.5,180,105.5,180z
			 M144,184.8c-1.1,0-2.1-0.6-2.5-1.6c-0.9-1.9-2.8-3.2-4.9-3.2h-16.2c-3,0-5.4,2.4-5.4,5.4V222c0,2.1,1.2,4,3.1,4.9
			c1,0.5,1.6,1.4,1.6,2.5h16.2c4.5,0,8.1-3.6,8.1-8.1L144,184.8L144,184.8z"/>
	</g>
	<g transform="translate(0 0.002)">
		<path class="st1" d="M82.2,23.7c-0.1,0-0.3,0.1-0.3,0.3v51c0,0.1,0.1,0.3,0.3,0.3c0,0,0,0,0,0H144c0.1,0,0.3-0.1,0.3-0.3
			c0,0,0,0,0,0 M50.8,74.9c0,0.1,0.1,0.3,0.3,0.3c0,0,0,0,0,0h30.6c0.1,0,0.3-0.1,0.3-0.3V24c0-0.1-0.1-0.3-0.3-0.3 M112.8,126.7
			H51.1c-0.1,0-0.3-0.1-0.3-0.3l0,0v-51c0-0.1,0.1-0.3,0.3-0.3h61.8c0.1,0,0.3,0.1,0.3,0.3v51C113.1,126.6,113,126.7,112.8,126.7
			C112.8,126.7,112.8,126.7,112.8,126.7z M144,126.7h-30.6c-0.1,0-0.3-0.1-0.3-0.3c0,0,0,0,0,0v-51c0-0.1,0.1-0.3,0.3-0.3H144
			c0.1,0,0.3,0.1,0.3,0.3v51C144.2,126.6,144.1,126.7,144,126.7C144,126.7,144,126.7,144,126.7z M82.2,178.2H144
			c0.1,0,0.3-0.1,0.3-0.3v-51c0-0.1-0.1-0.3-0.3-0.3l0,0H82.2c-0.1,0-0.3,0.1-0.3,0.3l0,0v51C81.9,178.1,82.1,178.2,82.2,178.2z
			 M51.1,178.2h30.6c0.1,0,0.3-0.1,0.3-0.3v-51c0-0.1-0.1-0.3-0.3-0.3H51.1c-0.1,0-0.3,0.1-0.3,0.3l0,0v51
			C50.8,178.1,50.9,178.2,51.1,178.2L51.1,178.2z M50.8,178.5c0-0.1,0.1-0.3,0.3-0.3h61.8c0.1,0,0.3,0.1,0.3,0.3v51
			c0,0.1-0.1,0.3-0.3,0.3 M113.4,229.7c-0.1,0-0.3-0.1-0.3-0.3v-51c0-0.1,0.1-0.3,0.3-0.3c0,0,0,0,0,0H144c0.1,0,0.3,0.1,0.3,0.3
			c0,0,0,0,0,0"/>
	</g>
</g>
</svg>
